<?xml version="1.0" encoding="UTF-8" standalone="no"?>
<!DOCTYPE svg PUBLIC "-//W3C//DTD SVG 1.1//EN" "http://www.w3.org/Graphics/SVG/1.1/DTD/svg11.dtd">
<svg width="100%" height="100%" viewBox="0 0 200 66" version="1.1" xmlns="http://www.w3.org/2000/svg" xmlns:xlink="http://www.w3.org/1999/xlink" xml:space="preserve" xmlns:serif="http://www.serif.com/" style="fill-rule:evenodd;clip-rule:evenodd;stroke-linejoin:round;stroke-miterlimit:1.41421;">
    <g id="steempower">
        <g transform="matrix(0.771465,0,0,0.780192,10.1001,6.68462)">
            <g transform="matrix(1,0,0,1,8,8)">
                <path d="M0.9,-0.9C0.2,-1.2 -8,5.5 -8,10.5C-8,17.3 1.6,32.8 3.2,38.8C4.6,43.9 0.8,50.1 1.9,50.4C2.9,51 11.8,41.9 12.2,38C12.6,31.9 1.7,14 0.8,9.3C-0.2,3.9 1.6,-0.8 0.9,-0.9" style="fill:rgb(26,80,153);fill-rule:nonzero;"/>
            </g>
            <g transform="matrix(1,0,0,1,8,8)">
                <path d="M42.7,-0.9C42.1,-1.2 33.8,5.6 33.8,10.6C33.8,17.4 43.4,32.9 45,38.9C46.4,44 42.6,50.2 43.7,50.5C44.7,51.1 53.6,42 54,38.2C54.5,31.9 43.5,14 42.7,9.3C41.7,3.9 43.5,-0.8 42.7,-0.9" style="fill:rgb(26,80,153);fill-rule:nonzero;"/>
            </g>
            <g transform="matrix(1,0,0,1,8,8)">
                <path d="M21.5,-8C20.7,-8.4 10.1,0.2 10.1,6.6C10.1,15.3 22.4,35 24.4,42.6C26.2,49.1 21.4,57 22.7,57.3C23.9,58.1 35.4,46.5 35.8,41.6C36.5,33.9 22.5,11 21.4,5.1C20.1,-1.8 22.4,-7.8 21.5,-8" style="fill:rgb(75,162,242);fill-rule:nonzero;"/>
            </g>
        </g>
        <g transform="matrix(1.49519,0,0,1.49519,-37.3611,6.15127)">
            <text x="69.003px" y="16.103px" style="font-family:'Roboto-Regular', 'Roboto';font-size:12px;fill:rgb(59,121,190);">Power<tspan x="102.665px " y="16.103px ">e</tspan>d By <tspan x="134.646px " y="16.103px ">T</tspan>he</text>
            <text x="69.003px" y="28.103px" style="font-family:'Roboto-Regular', 'Roboto';font-size:12px;fill:rgb(59,121,190);">Steem Network</text>
        </g>
    </g>
</svg>
