<?xml version="1.0" encoding="UTF-8" standalone="no"?>
<!DOCTYPE svg PUBLIC "-//W3C//DTD SVG 1.1//EN" "http://www.w3.org/Graphics/SVG/1.1/DTD/svg11.dtd">
<svg width="65%" height="65%" viewBox="0 0 200 86" id="svg" version="1.1" xmlns="http://www.w3.org/2000/svg" xmlns:xlink="http://www.w3.org/1999/xlink" xml:space="preserve" xmlns:serif="http://www.serif.com/" style="fill-rule:evenodd;clip-rule:evenodd;stroke-linejoin:round;stroke-miterlimit:1.41421;">
    <g>
        <g transform="matrix(0.685098,0,0,0.685098,32.6561,31.9817)">
            <g transform="matrix(1,0,0,1,-84.5,-60)">
                <g id="icon-payout-darkblue">
                    <path id="Shape" d="M73.76,74.599L73.353,74.999C72.51,75.828 71.609,76.614 70.678,77.342L69.603,78.171C69.53,78.228 69.443,78.257 69.356,78.257C69.283,78.257 69.21,78.242 69.152,78.2C69.007,78.114 68.934,77.957 68.978,77.785L69.399,75.914C69.865,73.885 69.763,71.756 69.109,69.77L68.876,69.084C68.615,68.284 68.295,67.498 67.961,66.727L63.005,55.226L62.467,53.654C62.307,53.168 62.191,52.668 62.133,52.154L62.045,51.368C61.798,49.154 62.569,46.982 64.167,45.411L64.574,45.011C65.417,44.182 66.318,43.396 67.248,42.667L68.324,41.839C68.455,41.739 68.629,41.724 68.774,41.81C68.92,41.896 68.992,42.053 68.949,42.225L68.527,44.096C68.062,46.125 68.164,48.254 68.818,50.24L69.051,50.925C69.312,51.725 69.632,52.511 69.966,53.283L74.937,64.784L75.475,66.355C75.634,66.841 75.751,67.341 75.809,67.856L75.896,68.641C76.129,70.842 75.358,73.013 73.76,74.599ZM90.532,78.371L90.008,78.885C88.947,79.928 87.814,80.928 86.636,81.828L85.241,82.914C85.169,82.971 85.067,83 84.98,83C84.907,83 84.82,82.971 84.747,82.929C84.587,82.829 84.515,82.657 84.558,82.486L85.11,80.071C85.692,77.499 85.561,74.813 84.733,72.313L84.442,71.442C84.108,70.427 83.715,69.427 83.279,68.456L77.015,53.954L76.347,51.983C76.143,51.383 75.998,50.74 75.925,50.111L75.809,49.111C75.489,46.339 76.463,43.625 78.454,41.639L78.977,41.124C80.038,40.081 81.172,39.081 82.349,38.181L83.744,37.095C83.89,36.981 84.079,36.967 84.238,37.067C84.398,37.167 84.471,37.338 84.427,37.51L83.875,39.924C83.294,42.496 83.425,45.182 84.253,47.682L84.544,48.554C84.878,49.554 85.27,50.568 85.706,51.54L91.97,66.055L92.639,68.027C92.842,68.627 92.988,69.27 93.06,69.899L93.177,70.899C93.496,73.671 92.523,76.399 90.532,78.371ZM104.833,74.599L104.426,74.999C103.583,75.828 102.682,76.614 101.752,77.342L100.676,78.171C100.603,78.228 100.516,78.257 100.429,78.257C100.356,78.257 100.284,78.242 100.226,78.2C100.08,78.114 100.008,77.957 100.051,77.785L100.473,75.914C100.938,73.885 100.836,71.756 100.182,69.77L99.949,69.084C99.688,68.284 99.368,67.498 99.034,66.727L94.063,55.226L93.525,53.654C93.366,53.168 93.249,52.668 93.191,52.154L93.104,51.368C92.857,49.154 93.627,46.982 95.226,45.411L95.633,45.011C96.476,44.182 97.377,43.396 98.307,42.667L99.383,41.839C99.513,41.739 99.688,41.724 99.833,41.81C99.978,41.896 100.051,42.053 100.008,42.225L99.586,44.096C99.121,46.125 99.223,48.254 99.877,50.24L100.109,50.925C100.371,51.725 100.691,52.511 101.025,53.283L105.995,64.784L106.533,66.355C106.693,66.841 106.809,67.341 106.867,67.856L106.955,68.641C107.202,70.842 106.431,73.013 104.833,74.599Z" style="fill:rgb(23,31,201);fill-rule:nonzero;"/>
                    <path id="Path" d="M84.5,17C108.524,17 128,36.476 128,60.5C128,84.524 108.524,104 84.5,104C60.476,104 41,84.524 41,60.5C41,36.476 60.476,17 84.5,17ZM84.5,19C61.58,19 43,37.58 43,60.5C43,83.42 61.58,102 84.5,102C107.42,102 126,83.42 126,60.5C126,37.58 107.42,19 84.5,19Z" style="fill:rgb(23,31,201);fill-rule:nonzero;"/>
                </g>
            </g>
        </g>
        <g transform="matrix(1.2989,0,0,1.2989,-27.0589,3.83651)">
            <text x="70.915px" y="19.167px" style="font-family:'SourceSansPro-Regular', 'Source Sans Pro', sans-serif;font-size:15.193px;fill:rgb(23,31,201);">P<tspan x="79.149px 87.323px 98.17px 105.706px 110.826px " y="19.167px 19.167px 19.167px 19.167px 19.167px ">owere</tspan>d B<tspan x="138.553px " y="19.167px ">y</tspan> The</text>
            <text x="70.915px" y="34.36px" style="font-family:'SourceSansPro-Regular', 'Source Sans Pro', sans-serif;font-size:15.193px;fill:rgb(23,31,201);">S<tspan x="78.663px 83.585px " y="34.36px 34.36px ">te</tspan>em Ne<tspan x="131.504px " y="34.36px ">t</tspan>work</text>
        </g>
    </g>
</svg>
